<svg width="41" height="30" viewBox="0 0 41 30" fill="none" xmlns="http://www.w3.org/2000/svg">
<path d="M10.1062 23.175C11.6812 23.175 13.2052 23.3573 14.6781 23.7219C16.151 24.0865 17.6021 24.6333 19.0313 25.3625V6.68125C17.7188 5.80625 16.2969 5.12813 14.7656 4.64688C13.2344 4.16563 11.6812 3.925 10.1062 3.925C8.99792 3.925 7.91146 4.06354 6.84688 4.34063C5.78229 4.61771 4.71042 4.96042 3.63125 5.36875V24.3562C4.53542 23.9479 5.56354 23.649 6.71563 23.4594C7.86771 23.2698 8.99792 23.175 10.1062 23.175ZM21.6563 25.3625C23.1146 24.6333 24.5438 24.0865 25.9438 23.7219C27.3438 23.3573 28.8313 23.175 30.4063 23.175C31.5146 23.175 32.6594 23.2625 33.8406 23.4375C35.0219 23.6125 36.0354 23.8458 36.8813 24.1375V5.36875C35.8896 4.84375 34.8396 4.47187 33.7313 4.25312C32.6229 4.03437 31.5146 3.925 30.4063 3.925C28.8313 3.925 27.3073 4.16563 25.8344 4.64688C24.3615 5.12813 22.9688 5.80625 21.6563 6.68125V25.3625ZM20.475 29.9125C20.2417 29.9125 19.9938 29.8906 19.7313 29.8469C19.4688 29.8031 19.2354 29.7083 19.0313 29.5625C17.6896 28.7167 16.2604 28.0458 14.7438 27.55C13.2271 27.0542 11.6812 26.8062 10.1062 26.8062C9.11458 26.8062 8.1375 26.9448 7.175 27.2219C6.2125 27.499 5.25 27.7979 4.2875 28.1187C3.325 28.6146 2.36979 28.5854 1.42188 28.0312C0.473958 27.4771 0 26.6312 0 25.4937V5.28125C0 4.55208 0.160417 3.87396 0.48125 3.24688C0.802083 2.61979 1.28333 2.14583 1.925 1.825C3.20833 1.24167 4.52813 0.833334 5.88438 0.600001C7.24063 0.366667 8.61875 0.25 10.0188 0.25C11.8854 0.25 13.6938 0.505208 15.4438 1.01562C17.1938 1.52604 18.8271 2.32083 20.3438 3.4C21.8313 2.35 23.4354 1.5625 25.1563 1.0375C26.8771 0.5125 28.6563 0.25 30.4938 0.25C31.8938 0.25 33.2646 0.38125 34.6063 0.64375C35.9479 0.90625 37.2604 1.3 38.5438 1.825C39.1854 2.14583 39.674 2.61979 40.0094 3.24688C40.3448 3.87396 40.5125 4.55208 40.5125 5.28125V25.975C40.5125 27.0542 40.0313 27.8271 39.0688 28.2937C38.1063 28.7604 37.1438 28.7021 36.1813 28.1187C35.2479 27.7687 34.3 27.4625 33.3375 27.2C32.375 26.9375 31.3979 26.8062 30.4063 26.8062C28.8604 26.8062 27.3729 27.0615 25.9438 27.5719C24.5146 28.0823 23.1438 28.7458 21.8313 29.5625C21.6562 29.7083 21.4375 29.8031 21.175 29.8469C20.9125 29.8906 20.6792 29.9125 20.475 29.9125Z" fill="#0056D2"/>
</svg>
