<svg width="41" height="38" viewBox="0 0 41 38" fill="none" xmlns="http://www.w3.org/2000/svg">
<path d="M19.9536 33.9625C20.0995 33.9625 20.2672 33.9333 20.4568 33.875C20.6464 33.8167 20.8141 33.7146 20.9599 33.5687L35.5286 18.9563C35.9661 18.5188 36.3089 18.001 36.5568 17.4031C36.8047 16.8052 36.9286 16.1854 36.9286 15.5438C36.9286 14.9021 36.8047 14.2677 36.5568 13.6406C36.3089 13.0135 35.9661 12.4667 35.5286 12L28.8786 5.35C28.4703 4.97083 27.9964 4.68646 27.4568 4.49687C26.9172 4.30729 26.3849 4.2125 25.8599 4.2125C25.3057 4.2125 24.7661 4.3 24.2411 4.475C23.7161 4.65 23.2786 4.89792 22.9286 5.21875L22.4474 5.74375L25.7286 9.025C26.1953 9.55 26.6109 10.1479 26.9755 10.8187C27.3401 11.4896 27.5224 12.2333 27.5224 13.05C27.5224 14.3917 26.9901 15.5875 25.9255 16.6375C24.8609 17.6875 23.6432 18.2125 22.2724 18.2125C21.3682 18.2125 20.6172 18.074 20.0193 17.7969C19.4214 17.5198 18.8599 17.1187 18.3349 16.5938L15.2286 13.4875L8.0974 20.6187C7.95156 20.7354 7.84948 20.8813 7.79115 21.0562C7.73281 21.2313 7.70365 21.4062 7.70365 21.5813C7.70365 21.9604 7.82031 22.2667 8.05365 22.5C8.28698 22.7333 8.59323 22.85 8.9724 22.85C9.1474 22.85 9.3224 22.8062 9.4974 22.7188C9.6724 22.6313 9.81823 22.5292 9.9349 22.4125L15.5349 16.8125L17.3724 18.65L11.8161 24.2063C11.6703 24.3521 11.5682 24.5198 11.5099 24.7094C11.4516 24.899 11.4224 25.0812 11.4224 25.2563C11.4224 25.6062 11.5391 25.9052 11.7724 26.1531C12.0057 26.401 12.2974 26.525 12.6474 26.525C12.8224 26.525 12.9974 26.4885 13.1724 26.4156C13.3474 26.3427 13.5078 26.2479 13.6536 26.1313L19.1661 20.575L21.0036 22.4125L15.4036 27.9688C15.3161 28.0854 15.2286 28.2385 15.1411 28.4281C15.0536 28.6177 15.0099 28.8 15.0099 28.975C15.0099 29.325 15.1411 29.6312 15.4036 29.8937C15.6661 30.1562 15.9724 30.2875 16.3224 30.2875C16.4974 30.2875 16.6651 30.251 16.8255 30.1781C16.9859 30.1052 17.1245 30.0104 17.2411 29.8937L22.8411 24.25L24.6786 26.0875L19.0786 31.6875C18.962 31.8333 18.8672 32.001 18.7943 32.1906C18.7214 32.3802 18.6849 32.5479 18.6849 32.6937C18.6849 33.1021 18.8016 33.4156 19.0349 33.6344C19.2682 33.8531 19.5745 33.9625 19.9536 33.9625ZM19.9974 37.5938C18.8891 37.5938 17.8901 37.2292 17.0005 36.5C16.1109 35.7708 15.5349 34.8375 15.2724 33.7C14.3391 33.525 13.5297 33.0875 12.8443 32.3875C12.1589 31.6875 11.7286 30.8854 11.5536 29.9812C10.6786 29.7771 9.90573 29.3396 9.23489 28.6687C8.56406 27.9979 8.12656 27.225 7.9224 26.35C6.81406 26.0875 5.88802 25.5115 5.14427 24.6219C4.40052 23.7323 4.02865 22.7042 4.02865 21.5375C4.02865 20.925 4.1526 20.3125 4.40052 19.7C4.64844 19.0875 4.99115 18.5479 5.42865 18.0813L15.2286 8.28125L20.6974 13.7063C20.9307 13.9396 21.1859 14.1292 21.463 14.275C21.7401 14.4208 22.0391 14.4938 22.3599 14.4938C22.7099 14.4938 23.0453 14.326 23.3661 13.9906C23.687 13.6552 23.8474 13.3125 23.8474 12.9625C23.8474 12.7875 23.7818 12.576 23.6505 12.3281C23.5193 12.0802 23.3516 11.8396 23.1474 11.6062L16.8036 5.2625C16.4536 4.9125 15.9943 4.65 15.4255 4.475C14.8568 4.3 14.2661 4.2125 13.6536 4.2125C13.0411 4.2125 12.4797 4.3 11.9693 4.475C11.4589 4.65 11.0432 4.9125 10.7224 5.2625L4.5099 11.3875C4.18906 11.7375 3.95573 12.1531 3.8099 12.6344C3.66406 13.1156 3.59115 13.6771 3.59115 14.3187C3.62031 14.7854 3.75156 15.2229 3.9849 15.6312C4.21823 16.0396 4.46615 16.4188 4.72865 16.7688L2.1474 19.35C1.56406 18.8542 1.06823 18.125 0.659896 17.1625C0.251563 16.2 0.0328125 15.2375 0.00364583 14.275C-0.0255208 13.1667 0.120312 12.1604 0.441146 11.2562C0.761979 10.3521 1.2724 9.55 1.9724 8.85L8.0974 2.68125C8.7974 1.98125 9.65781 1.46354 10.6786 1.12812C11.6995 0.792708 12.7057 0.625 13.6974 0.625C14.7766 0.625 15.7974 0.792708 16.7599 1.12812C17.7224 1.46354 18.5536 1.95208 19.2536 2.59375L19.7786 3.075L20.2599 2.59375C20.9307 1.98125 21.7766 1.5 22.7974 1.15C23.8182 0.8 24.8391 0.625 25.8599 0.625C26.8807 0.625 27.887 0.814583 28.8786 1.19375C29.8703 1.57292 30.7161 2.1125 31.4161 2.8125L38.3286 9.68125C39.0578 10.4104 39.6047 11.3073 39.9693 12.3719C40.3339 13.4365 40.5161 14.4792 40.5161 15.5C40.5161 16.55 40.312 17.6219 39.9036 18.7156C39.4953 19.8094 38.9266 20.7354 38.1974 21.4937L23.4974 36.15C23.0307 36.6167 22.4984 36.974 21.9005 37.2219C21.3026 37.4698 20.6682 37.5938 19.9974 37.5938Z" fill="#0056D2"/>
</svg>
