<svg width="38" height="38" viewBox="0 0 38 38" fill="none" xmlns="http://www.w3.org/2000/svg">
<path d="M10.0314 27.9687H34.0939V3.9062H31.7314V14.4937C31.7314 14.8437 31.5783 15.1062 31.2721 15.2812C30.9658 15.4562 30.6669 15.4416 30.3752 15.2375L27.6627 13.575L24.9502 15.2375C24.6585 15.4416 24.3596 15.4562 24.0533 15.2812C23.7471 15.1062 23.5939 14.8437 23.5939 14.4937V3.9062H10.0314V27.9687ZM10.0314 31.4687C9.06894 31.4687 8.24499 31.126 7.55957 30.4406C6.87415 29.7552 6.53145 28.9312 6.53145 27.9687V3.9062C6.53145 2.97287 6.87415 2.16349 7.55957 1.47808C8.24499 0.792659 9.06894 0.449951 10.0314 0.449951H34.0939C35.0273 0.449951 35.8367 0.792659 36.5221 1.47808C37.2075 2.16349 37.5502 2.97287 37.5502 3.9062V27.9687C37.5502 28.9312 37.2075 29.7552 36.5221 30.4406C35.8367 31.126 35.0273 31.4687 34.0939 31.4687H10.0314ZM3.90645 37.55C2.97311 37.55 2.16374 37.2072 1.47832 36.5218C0.792904 35.8364 0.450195 35.027 0.450195 34.0937V8.2812C0.450195 7.78537 0.617904 7.36974 0.95332 7.03433C1.28874 6.69891 1.70436 6.5312 2.2002 6.5312C2.69603 6.5312 3.10436 6.69891 3.4252 7.03433C3.74603 7.36974 3.90645 7.78537 3.90645 8.2812V34.0937H29.7189C30.2148 34.0937 30.6304 34.2614 30.9658 34.5968C31.3012 34.9322 31.4689 35.3479 31.4689 35.8437C31.4689 36.3395 31.3012 36.7479 30.9658 37.0687C30.6304 37.3895 30.2148 37.55 29.7189 37.55H3.90645ZM23.5939 3.9062H31.7314H23.5939ZM10.0314 3.9062H34.0939H10.0314Z" fill="#0056D2"/>
</svg>
