<svg width="34" height="32" viewBox="0 0 34 32" fill="none" xmlns="http://www.w3.org/2000/svg">
<path d="M10.4813 26.55L17.0001 22.6562L23.5188 26.5937L21.7688 19.2L27.5001 14.2125L19.9313 13.5562L17.0001 6.59995L14.0688 13.5562L6.50006 14.1687L12.2313 19.1562L10.4813 26.55ZM17.0001 26.6812L8.81881 31.625C8.46881 31.8291 8.1261 31.9166 7.79068 31.8875C7.45527 31.8583 7.15631 31.7416 6.89381 31.5375C6.60214 31.3625 6.39797 31.1218 6.28131 30.8156C6.16464 30.5093 6.13547 30.152 6.19381 29.7437L8.38131 20.425L1.16256 14.125C0.841724 13.8625 0.644849 13.5708 0.571933 13.25C0.499016 12.9291 0.506308 12.6083 0.593808 12.2875C0.681308 11.9666 0.863599 11.6968 1.14068 11.4781C1.41777 11.2593 1.74589 11.1354 2.12506 11.1062L11.6626 10.275L15.3813 1.43745C15.5271 1.08745 15.7532 0.824951 16.0594 0.649951C16.3657 0.474951 16.6792 0.387451 17.0001 0.387451C17.3209 0.387451 17.6344 0.474951 17.9407 0.649951C18.2469 0.824951 18.473 1.08745 18.6188 1.43745L22.3376 10.275L31.8751 11.1062C32.2542 11.1354 32.5823 11.2593 32.8594 11.4781C33.1365 11.6968 33.3188 11.9666 33.4063 12.2875C33.4938 12.6083 33.5011 12.9291 33.4282 13.25C33.3553 13.5708 33.1584 13.8625 32.8376 14.125L25.6188 20.425L27.8063 29.7437C27.8646 30.152 27.8355 30.5093 27.7188 30.8156C27.6021 31.1218 27.398 31.3625 27.1063 31.5375C26.8438 31.7416 26.5448 31.8583 26.2094 31.8875C25.874 31.9166 25.5313 31.8291 25.1813 31.625L17.0001 26.6812Z" fill="#0056D2"/>
</svg>
