<svg width="28" height="28" viewBox="0 0 28 28" fill="none" xmlns="http://www.w3.org/2000/svg">
<path d="M23.8573 23.8577H19.7086V17.3605C19.7086 15.8112 19.6809 13.8168 17.5509 13.8168C15.39 13.8168 15.0594 15.5048 15.0594 17.2477V23.8573H10.9108V10.4965H14.8935V12.3224H14.9493C15.3478 11.6409 15.9238 11.0802 16.6158 10.7001C17.3078 10.3201 18.0899 10.1348 18.8789 10.1641C23.0838 10.1641 23.8591 12.9299 23.8591 16.5282L23.8573 23.8577ZM6.22956 8.67023C4.89989 8.67044 3.82178 7.59266 3.82156 6.26299C3.82134 4.93332 4.89902 3.85521 6.22869 3.85499C7.55836 3.85466 8.63647 4.93244 8.63669 6.26212C8.6368 6.90065 8.38326 7.51308 7.93184 7.96469C7.48042 8.41629 6.8681 8.67008 6.22956 8.67023ZM8.30397 23.8578H4.15089V10.4965H8.30386V23.8577L8.30397 23.8578ZM25.9256 0.00203786H2.0662C0.938547 -0.0106496 0.0137813 0.892678 0 2.02033V25.9793C0.0133438 27.1075 0.938 28.0117 2.06609 27.9998H25.9256C27.0561 28.0138 27.9844 27.1096 28 25.9793V2.01848C27.9839 0.888632 27.0555 -0.0145871 25.9256 0.000178488" fill="#0A66C2"/>
</svg>
