<svg width="38" height="38" viewBox="0 0 38 38" fill="none" xmlns="http://www.w3.org/2000/svg">
<path d="M10.8187 16.8125C11.2853 15.9083 11.7812 15.0042 12.3062 14.1C12.8312 13.1958 13.3853 12.3354 13.9687 11.5188L10.7749 10.8625L6.61865 15.0188L10.8187 16.8125ZM33.4374 3.8625C30.4624 4.06667 27.852 4.71563 25.6061 5.80938C23.3603 6.90313 21.1437 8.54375 18.9562 10.7312C18.052 11.6354 17.1478 12.7802 16.2437 14.1656C15.3395 15.551 14.4499 17.1187 13.5749 18.8687L19.2624 24.5562C21.0124 23.6812 22.5801 22.799 23.9655 21.9094C25.3509 21.0198 26.4957 20.1229 27.3999 19.2188C29.5874 17.0312 31.2207 14.8146 32.2999 12.5687C33.3791 10.3229 34.0353 7.7125 34.2687 4.7375C34.2687 4.59167 34.2541 4.46771 34.2249 4.36562C34.1957 4.26354 34.1374 4.16875 34.0499 4.08125C33.9624 3.99375 33.8749 3.93542 33.7874 3.90625C33.6999 3.87708 33.5832 3.8625 33.4374 3.8625ZM23.5937 14.5813C23.0395 14.0271 22.7624 13.3417 22.7624 12.525C22.7624 11.7083 23.0395 11.0083 23.5937 10.425C24.177 9.87083 24.8697 9.59375 25.6718 9.59375C26.4739 9.59375 27.152 9.87083 27.7062 10.425C28.2895 11.0083 28.5812 11.7083 28.5812 12.525C28.5812 13.3417 28.2895 14.0271 27.7062 14.5813C27.152 15.1354 26.4739 15.4125 25.6718 15.4125C24.8697 15.4125 24.177 15.1354 23.5937 14.5813ZM21.3186 27.3562L23.1124 31.5125L27.2687 27.3562L26.6562 24.1625C25.8395 24.7458 24.9718 25.3073 24.053 25.8469C23.1343 26.3865 22.2228 26.8896 21.3186 27.3562ZM37.9874 1.98125C38.0166 5.97708 37.3749 9.55 36.0624 12.7C34.7499 15.85 32.752 18.7812 30.0687 21.4937C30.0103 21.5229 29.952 21.5667 29.8937 21.625L29.7187 21.8L30.6812 26.6562C30.827 27.2396 30.8124 27.8083 30.6374 28.3625C30.4624 28.9167 30.1707 29.4125 29.7624 29.85L23.7687 35.8C23.3312 36.2375 22.8134 36.3979 22.2155 36.2812C21.6176 36.1646 21.202 35.8146 20.9687 35.2313L17.8624 28.0125L10.1624 20.2688L2.8999 17.2063C2.31657 16.9729 1.97386 16.55 1.87178 15.9375C1.76969 15.325 1.9374 14.8146 2.3749 14.4062L8.36865 8.4125C8.77699 8.00417 9.24365 7.7125 9.76865 7.5375C10.2937 7.3625 10.8624 7.33333 11.4749 7.45L16.3312 8.4125C16.3895 8.38333 16.4478 8.33958 16.5062 8.28125C16.5645 8.22292 16.6228 8.17917 16.6812 8.15C19.3937 5.4375 22.3176 3.43229 25.453 2.13437C28.5884 0.836458 32.1395 0.1875 36.1062 0.1875C36.3687 0.1875 36.602 0.238542 36.8061 0.340625C37.0103 0.442708 37.1999 0.58125 37.3749 0.75625C37.5791 0.93125 37.7322 1.12083 37.8343 1.325C37.9364 1.52917 37.9874 1.74792 37.9874 1.98125ZM3.73115 25.8687C4.89782 24.7313 6.29053 24.1552 7.90928 24.1406C9.52803 24.126 10.9062 24.6875 12.0437 25.825C13.1812 26.9625 13.7426 28.3406 13.728 29.9594C13.7134 31.5781 13.1374 32.9562 11.9999 34.0938C11.1249 34.9688 9.77594 35.6906 7.95303 36.2594C6.13011 36.8281 3.57074 37.3021 0.274902 37.6812C0.654069 34.3854 1.11344 31.8115 1.65303 29.9594C2.19261 28.1073 2.88532 26.7437 3.73115 25.8687ZM6.2249 28.3625C5.81657 28.7708 5.48115 29.376 5.21865 30.1781C4.95615 30.9802 4.70824 32.0667 4.4749 33.4375C5.84574 33.2042 6.93219 32.949 7.73428 32.6719C8.53636 32.3948 9.14157 32.0521 9.5499 31.6438C10.0457 31.2063 10.2937 30.6594 10.2937 30.0031C10.2937 29.3469 10.0603 28.7708 9.59365 28.275C9.09782 27.8083 8.51448 27.5823 7.84365 27.5969C7.17282 27.6115 6.63323 27.8667 6.2249 28.3625Z" fill="#0056D2"/>
</svg>
