<svg width="36" height="30" viewBox="0 0 36 30" fill="none" xmlns="http://www.w3.org/2000/svg">
<path d="M12.0437 29.875C11.1104 29.875 10.301 29.5323 9.61562 28.8469C8.93021 28.1615 8.5875 27.3521 8.5875 26.4188V23.575C8.5875 23.0792 8.74792 22.6636 9.06875 22.3282C9.38958 21.9928 9.79792 21.825 10.2937 21.825H14.2312V16.2688C13.1812 16.298 12.1094 16.1157 11.0156 15.7219C9.92188 15.3282 8.95208 14.723 8.10625 13.9063V11.4563H6.05L1.325 6.7313C1.00417 6.41047 0.84375 6.03859 0.84375 5.61567C0.84375 5.19276 1.00417 4.86463 1.325 4.6313C2.31667 3.87297 3.45417 3.25317 4.7375 2.77192C6.02083 2.29067 7.30417 2.05005 8.5875 2.05005C9.375 2.05005 10.301 2.18859 11.3656 2.46567C12.4302 2.74276 13.3854 3.15838 14.2312 3.71255V1.8313C14.2312 1.33547 14.399 0.919841 14.7344 0.584424C15.0698 0.249007 15.4708 0.0812988 15.9375 0.0812988H33.6562C34.1229 0.0812988 34.5312 0.249007 34.8813 0.584424C35.2313 0.919841 35.4062 1.33547 35.4062 1.8313V24.6688C35.4062 26.098 34.8958 27.323 33.875 28.3438C32.8542 29.3646 31.6146 29.875 30.1562 29.875H12.0437ZM17.6875 21.825H26.6562C27.1521 21.825 27.5677 21.9928 27.9031 22.3282C28.2385 22.6636 28.4062 23.0792 28.4062 23.575V24.6688C28.4062 25.1938 28.5667 25.6167 28.8875 25.9375C29.2083 26.2584 29.6313 26.4188 30.1562 26.4188C30.6812 26.4188 31.1042 26.2584 31.425 25.9375C31.7458 25.6167 31.9062 25.1938 31.9062 24.6688V3.5813H17.6875V6.1188L26.9187 15.3063C27.1229 15.5396 27.2833 15.7511 27.4 15.9407C27.5167 16.1303 27.575 16.3709 27.575 16.6625C27.575 17.0709 27.4365 17.4136 27.1594 17.6907C26.8823 17.9678 26.5396 18.1063 26.1313 18.1063C25.8396 18.1063 25.599 18.048 25.4094 17.9313C25.2198 17.8146 25.0375 17.6542 24.8625 17.45L20.3562 12.9438L19.7 13.6875C19.3792 14.0959 19.0583 14.4021 18.7375 14.6063C18.4167 14.8105 18.0667 15 17.6875 15.175V21.825ZM7.31875 8.52505H11.0375V12.5063C11.475 12.798 11.9271 13.0167 12.3938 13.1625C12.8604 13.3084 13.3417 13.3813 13.8375 13.3813C14.5375 13.3813 15.2521 13.1844 15.9812 12.7907C16.7104 12.3969 17.2208 12.0251 17.5125 11.6751L18.2125 10.8875L15.325 7.9563C14.3917 7.02297 13.3562 6.2938 12.2188 5.7688C11.0813 5.2438 9.87083 4.9813 8.5875 4.9813C7.82917 4.9813 7.15104 5.0688 6.55312 5.2438C5.95521 5.4188 5.35 5.65213 4.7375 5.9438L7.31875 8.52505ZM12.0437 26.4188H25.5625C25.3583 26.273 25.2052 26.0469 25.1031 25.7407C25.001 25.4344 24.95 25.0917 24.95 24.7125H12.0437V26.4188ZM12.0437 26.4188V24.7125V26.4188Z" fill="#0056D2"/>
</svg>
