<svg width="20" height="20" viewBox="0 0 20 20" fill="none" xmlns="http://www.w3.org/2000/svg">
<circle cx="10" cy="10" r="10" fill="#003B8F"/>
<path d="M8.5125 13.4856C8.425 13.4856 8.33993 13.4685 8.25729 13.4345C8.17465 13.4005 8.09931 13.3494 8.03125 13.2814L5.39167 10.6418C5.25556 10.5057 5.1875 10.3404 5.1875 10.146C5.1875 9.95153 5.25556 9.78625 5.39167 9.65014C5.52778 9.51403 5.69063 9.44597 5.88021 9.44597C6.06979 9.44597 6.2375 9.51403 6.38333 9.65014L8.5125 11.7793L13.6167 6.68972C13.7528 6.55361 13.9156 6.48312 14.1052 6.47826C14.2948 6.4734 14.4576 6.54389 14.5938 6.68972C14.7299 6.82583 14.7979 6.99111 14.7979 7.18555C14.7979 7.38 14.7299 7.54528 14.5938 7.68139L8.99375 13.2814C8.92569 13.3494 8.85035 13.4005 8.76771 13.4345C8.68507 13.4685 8.6 13.4856 8.5125 13.4856Z" fill="white"/>
</svg>
